<svg xmlns="http://www.w3.org/2000/svg" width="18" height="18" viewBox="0 0 18 18"><path d="M17.64 9.2c0-.637-.057-1.251-.164-1.84H9v3.481h4.844c-.209 1.125-.843 2.078-1.796 2.717v2.258h2.908c1.702-1.567 2.684-3.874 2.684-6.615z" fill="#4285f4"/><path d="M9 18c2.43 0 4.467-.806 5.956-2.184L12.048 13.56c-.802.538-1.829.856-3.048.856-2.344 0-4.328-1.584-5.036-3.711H.957v2.332A8.997 8.997 0 0 0 9 18z" fill="#34a853"/><path d="M3.964 10.705A5.41 5.41 0 0 1 3.682 9c0-.593.102-1.17.282-1.705V4.963H.957A8.996 8.996 0 0 0 0 9c0 1.452.348 2.827.957 4.041l3.007-2.336z" fill="#fbbc05"/><path d="M9 3.58c1.321 0 2.508.454 3.44 1.345l2.582-2.58C13.463.891 11.426 0 9 0A8.997 8.997 0 0 0 .957 4.963L3.964 7.295C4.672 5.168 6.656 3.58 9 3.58z" fill="#ea4335"/></svg>
